<?xml version="1.0" standalone="no"?>
<!DOCTYPE svg PUBLIC "-//W3C//DTD SVG 20010904//EN"
 "http://www.w3.org/TR/2001/REC-SVG-20010904/DTD/svg10.dtd">
<svg version="1.0" xmlns="http://www.w3.org/2000/svg"
 width="1024.000000pt" height="1024.000000pt" viewBox="0 0 1024.000000 1024.000000"
 preserveAspectRatio="xMidYMid meet">
<metadata>
Created by potrace 1.14, written by Peter Selinger 2001-2017
</metadata>
<g transform="translate(0.000000,1024.000000) scale(0.100000,-0.100000)"
fill="#000000" stroke="none">
<path d="M4829 10116 c-2 -2 -49 -7 -104 -10 -55 -4 -111 -8 -125 -11 -14 -2
-47 -7 -75 -9 -52 -6 -95 -11 -158 -22 -20 -3 -47 -7 -60 -8 -12 -2 -35 -6
-52 -9 -16 -4 -46 -9 -65 -12 -280 -46 -705 -174 -1020 -308 -14 -6 -27 -11
-30 -12 -31 -8 -354 -168 -458 -227 -153 -86 -351 -212 -438 -277 -12 -9 -32
-23 -44 -31 -37 -25 -153 -112 -186 -139 -17 -14 -51 -42 -75 -61 -131 -104
-388 -349 -515 -491 -119 -132 -132 -148 -190 -220 -32 -41 -62 -76 -65 -79
-4 -3 -17 -21 -30 -40 -13 -19 -43 -61 -67 -92 -105 -142 -256 -381 -344 -543
-53 -98 -188 -372 -188 -381 0 -3 -11 -29 -24 -58 -108 -236 -269 -764 -310
-1016 -3 -19 -8 -45 -10 -56 -6 -28 -13 -77 -22 -139 -3 -27 -8 -58 -9 -67 -2
-9 -7 -48 -10 -85 -4 -37 -9 -77 -11 -88 -26 -139 -25 -836 1 -1030 2 -16 7
-52 10 -80 4 -27 9 -63 11 -80 2 -16 7 -48 9 -70 3 -22 15 -89 26 -150 12 -60
22 -119 24 -130 2 -11 6 -29 8 -40 3 -11 15 -60 27 -110 108 -461 330 -997
583 -1410 30 -49 210 -320 228 -344 131 -171 171 -221 243 -306 88 -103 127
-145 266 -285 463 -465 955 -799 1585 -1075 386 -170 895 -305 1350 -360 28
-3 64 -8 82 -10 98 -14 240 -19 508 -20 303 0 461 7 620 30 17 2 53 7 80 10
28 3 102 15 165 26 917 158 1738 550 2455 1172 121 105 405 397 519 532 418
502 717 1031 920 1635 49 146 112 370 136 485 16 79 49 251 54 280 2 17 9 59
15 95 6 36 13 94 16 130 4 36 8 76 11 90 26 157 26 869 -1 1031 -2 13 -6 49
-9 79 -4 30 -8 66 -10 80 -3 14 -10 59 -16 100 -22 144 -24 152 -60 320 -17
74 -39 167 -51 205 -11 39 -21 75 -23 80 -81 303 -268 757 -426 1030 -27 48
-50 90 -50 92 0 6 -130 212 -189 298 -273 403 -637 797 -1016 1100 -27 22 -52
42 -55 45 -8 9 -179 132 -265 191 -367 252 -802 466 -1240 610 -130 43 -356
107 -435 123 -122 26 -221 45 -250 50 -19 3 -48 8 -65 11 -54 9 -89 14 -140
20 -27 4 -61 8 -74 10 -14 3 -54 7 -90 11 -36 3 -82 8 -101 11 -41 5 -696 14
-701 9z"/>
</g>
</svg>
